<svg id="mortarboard" xmlns="http://www.w3.org/2000/svg" xmlns:xlink="http://www.w3.org/1999/xlink" width="40.174" height="31.7" viewBox="0 0 40.174 31.7">
  <defs>
    <linearGradient id="linear-gradient" x1="0.5" x2="0.5" y2="1" gradientUnits="objectBoundingBox">
      <stop offset="0" stop-color="#2a7ff7"/>
      <stop offset="0.551" stop-color="#5052ea"/>
      <stop offset="1" stop-color="#554ce8"/>
      <stop offset="1" stop-color="#ae6bb5"/>
    </linearGradient>
  </defs>
  <g id="Group_3" data-name="Group 3" transform="translate(0 0)">
    <path id="Path_4" data-name="Path 4" d="M38.839,50.4,22.825,42.287a6.343,6.343,0,0,0-5.108,0L1.335,50.4A2.046,2.046,0,0,0,0,52.213a2.093,2.093,0,0,0,1.335,1.813l1.335.668v7.636a2.338,2.338,0,0,0-1.427,2.148,2.371,2.371,0,0,0,1.381,2.148L.552,73.45h5.8L4.28,66.626a2.345,2.345,0,0,0-.046-4.3V55.506l2.439,1.241v9.926a.789.789,0,0,0,.138.429A16.553,16.553,0,0,0,20.064,73.45,16.462,16.462,0,0,0,33.271,67.1a.789.789,0,0,0,.138-.429V56.795l5.43-2.768a2.046,2.046,0,0,0,1.335-1.813A2.132,2.132,0,0,0,38.839,50.4Zm-6.9,16.035a15.21,15.21,0,0,1-11.873,5.536A15.21,15.21,0,0,1,8.191,66.435v-9.02l9.526,4.725a6.016,6.016,0,0,0,2.531.525,5.436,5.436,0,0,0,2.577-.573l9.112-4.629ZM38.2,52.69l-5.522,2.816a.525.525,0,0,0-.506.286L22.181,60.8a4.941,4.941,0,0,1-3.866,0L6.028,54.695l14.128-1.718a.736.736,0,0,0,.644-.811.723.723,0,0,0-.782-.668l-16.382,2L1.979,52.69a.942.942,0,0,1-.506-.43c0-.048.092-.239.506-.43l16.382-8.161a4.607,4.607,0,0,1,1.887-.382,4.52,4.52,0,0,1,1.933.382L38.2,51.784c.414.191.506.382.506.477A1.282,1.282,0,0,1,38.2,52.69Z" transform="translate(0 -41.75)" fill="url(#linear-gradient)"/>
  </g>
</svg>
